# xmcd
#
# Track frame offsets: 
#        150
#        19218
#        34355
#        53547
#        67376
#        86352
#        107295
#        123931
#        143579
#        163158
#
# Disc length: 2354 seconds
#
# Revision: 0
# Processed by: cddbd v1.5.2PL0 Copyright (c) Steve Scherf et al.
# Submitted via: ExactAudioCopy v1.0b4
#
DISCID=8009300a
DTITLE=The David Latto Band - The David Latto Band
DYEAR=2012
DGENRE=Country
TTITLE0=Like I Feel Tonight
TTITLE1=Byway Man
TTITLE2=Wronged
TTITLE3=Rollin' On
TTITLE4=Song You'll Never Hear
TTITLE5=Black Horse
TTITLE6=Just Another Fool
TTITLE7=Wait a Minute
TTITLE8=Plummer's Song
TTITLE9=God, I'm Drinking Tonight
EXTD=
EXTT0=
EXTT1=
EXTT2=
EXTT3=
EXTT4=
EXTT5=
EXTT6=
EXTT7=
EXTT8=
EXTT9=
PLAYORDER=
